<svg width="46" height="55" viewBox="0 0 46 55" fill="none" xmlns="http://www.w3.org/2000/svg">
<path d="M5.75 55C4.93542 55 4.2526 54.7226 3.70156 54.1678C3.15052 53.6129 2.875 52.9254 2.875 52.1053V46.1711C2.0125 45.2061 1.31771 44.1327 0.790625 42.9507C0.263542 41.7686 0 40.4781 0 39.0789V11.5789C0 7.57456 1.84479 4.64364 5.53438 2.78618C9.22396 0.928728 15.0458 0 23 0C31.2417 0 37.1354 0.892544 40.6813 2.67763C44.2271 4.46272 46 7.42982 46 11.5789V39.0789C46 40.4781 45.7365 41.7686 45.2094 42.9507C44.6823 44.1327 43.9875 45.2061 43.125 46.1711V52.1053C43.125 52.9254 42.8495 53.6129 42.2984 54.1678C41.7474 54.7226 41.0646 55 40.25 55H37.375C36.5604 55 35.8776 54.7226 35.3266 54.1678C34.7755 53.6129 34.5 52.9254 34.5 52.1053V49.2105H11.5V52.1053C11.5 52.9254 11.2245 53.6129 10.6734 54.1678C10.1224 54.7226 9.43958 55 8.625 55H5.75ZM23.1438 8.68421H39.2438H7.04375H23.1438ZM34.5 28.9474H5.75H40.25H34.5ZM5.75 23.1579H40.25V14.4737H5.75V23.1579ZM12.9375 40.5263C14.1354 40.5263 15.1536 40.1042 15.9922 39.2599C16.8307 38.4156 17.25 37.3903 17.25 36.1842C17.25 34.9781 16.8307 33.9529 15.9922 33.1086C15.1536 32.2643 14.1354 31.8421 12.9375 31.8421C11.7396 31.8421 10.7214 32.2643 9.88281 33.1086C9.04427 33.9529 8.625 34.9781 8.625 36.1842C8.625 37.3903 9.04427 38.4156 9.88281 39.2599C10.7214 40.1042 11.7396 40.5263 12.9375 40.5263ZM33.0625 40.5263C34.2604 40.5263 35.2786 40.1042 36.1172 39.2599C36.9557 38.4156 37.375 37.3903 37.375 36.1842C37.375 34.9781 36.9557 33.9529 36.1172 33.1086C35.2786 32.2643 34.2604 31.8421 33.0625 31.8421C31.8646 31.8421 30.8464 32.2643 30.0078 33.1086C29.1693 33.9529 28.75 34.9781 28.75 36.1842C28.75 37.3903 29.1693 38.4156 30.0078 39.2599C30.8464 40.1042 31.8646 40.5263 33.0625 40.5263ZM7.04375 8.68421H39.2438C38.525 7.86403 36.9797 7.17654 34.6078 6.62171C32.2359 6.06689 28.4146 5.78947 23.1438 5.78947C18.0167 5.78947 14.2672 6.09101 11.8953 6.69408C9.52344 7.29715 7.90625 7.96053 7.04375 8.68421ZM11.5 43.4211H34.5C36.0813 43.4211 37.4349 42.8542 38.5609 41.7204C39.687 40.5866 40.25 39.2237 40.25 37.6316V28.9474H5.75V37.6316C5.75 39.2237 6.31302 40.5866 7.43906 41.7204C8.5651 42.8542 9.91875 43.4211 11.5 43.4211Z" fill="#EDB935"/>
</svg>
