<svg width="49" height="69" viewBox="0 0 49 69" fill="none" xmlns="http://www.w3.org/2000/svg">
<rect x="2.52844" y="3.01725" width="42.7295" height="42.7295" rx="7.5" transform="rotate(-0.655536 2.52844 3.01725)" stroke="#511D43" stroke-width="5"/>
<path d="M10.069 29.156C9.341 29.156 8.64333 29.0607 7.976 28.87C7.30867 28.6707 6.77133 28.415 6.364 28.103L7.079 26.517C7.469 26.7943 7.92833 27.024 8.457 27.206C8.99433 27.3793 9.536 27.466 10.082 27.466C10.498 27.466 10.8317 27.427 11.083 27.349C11.343 27.2623 11.5337 27.1453 11.655 26.998C11.7763 26.8507 11.837 26.6817 11.837 26.491C11.837 26.2483 11.7417 26.0577 11.551 25.919C11.3603 25.7717 11.109 25.6547 10.797 25.568C10.485 25.4727 10.1383 25.386 9.757 25.308C9.38433 25.2213 9.00733 25.1173 8.626 24.996C8.25333 24.8747 7.911 24.7187 7.599 24.528C7.287 24.3373 7.03133 24.086 6.832 23.774C6.64133 23.462 6.546 23.0633 6.546 22.578C6.546 22.058 6.68467 21.5857 6.962 21.161C7.248 20.7277 7.67267 20.3853 8.236 20.134C8.808 19.874 9.523 19.744 10.381 19.744C10.953 19.744 11.5163 19.8133 12.071 19.952C12.6257 20.082 13.1153 20.2813 13.54 20.55L12.89 22.149C12.4653 21.9063 12.0407 21.7287 11.616 21.616C11.1913 21.4947 10.7753 21.434 10.368 21.434C9.96067 21.434 9.627 21.4817 9.367 21.577C9.107 21.6723 8.92067 21.798 8.808 21.954C8.69533 22.1013 8.639 22.2747 8.639 22.474C8.639 22.708 8.73433 22.8987 8.925 23.046C9.11567 23.1847 9.367 23.2973 9.679 23.384C9.991 23.4707 10.3333 23.5573 10.706 23.644C11.0873 23.7307 11.4643 23.8303 11.837 23.943C12.2183 24.0557 12.565 24.2073 12.877 24.398C13.189 24.5887 13.4403 24.84 13.631 25.152C13.8303 25.464 13.93 25.8583 13.93 26.335C13.93 26.8463 13.787 27.3143 13.501 27.739C13.215 28.1637 12.786 28.506 12.214 28.766C11.6507 29.026 10.9357 29.156 10.069 29.156ZM17.1271 29V21.616H14.2151V19.9H22.1451V21.616H19.2331V29H17.1271ZM27.5713 29.156C26.8519 29.156 26.1846 29.039 25.5693 28.805C24.9626 28.571 24.4339 28.2417 23.9833 27.817C23.5413 27.3923 23.1946 26.894 22.9433 26.322C22.7006 25.75 22.5793 25.126 22.5793 24.45C22.5793 23.774 22.7006 23.15 22.9433 22.578C23.1946 22.006 23.5456 21.5077 23.9963 21.083C24.4469 20.6583 24.9756 20.329 25.5823 20.095C26.1889 19.861 26.8476 19.744 27.5583 19.744C28.2776 19.744 28.9363 19.861 29.5343 20.095C30.1409 20.329 30.6653 20.6583 31.1073 21.083C31.5579 21.5077 31.9089 22.006 32.1603 22.578C32.4116 23.1413 32.5373 23.7653 32.5373 24.45C32.5373 25.126 32.4116 25.7543 32.1603 26.335C31.9089 26.907 31.5579 27.4053 31.1073 27.83C30.6653 28.246 30.1409 28.571 29.5343 28.805C28.9363 29.039 28.2819 29.156 27.5713 29.156ZM27.5583 27.362C27.9656 27.362 28.3383 27.2927 28.6763 27.154C29.0229 27.0153 29.3263 26.816 29.5863 26.556C29.8463 26.296 30.0456 25.9883 30.1843 25.633C30.3316 25.2777 30.4053 24.8833 30.4053 24.45C30.4053 24.0167 30.3316 23.6223 30.1843 23.267C30.0456 22.9117 29.8463 22.604 29.5863 22.344C29.3349 22.084 29.0359 21.8847 28.6893 21.746C28.3426 21.6073 27.9656 21.538 27.5583 21.538C27.1509 21.538 26.7739 21.6073 26.4273 21.746C26.0893 21.8847 25.7903 22.084 25.5303 22.344C25.2703 22.604 25.0666 22.9117 24.9193 23.267C24.7806 23.6223 24.7113 24.0167 24.7113 24.45C24.7113 24.8747 24.7806 25.269 24.9193 25.633C25.0666 25.9883 25.2659 26.296 25.5173 26.556C25.7773 26.816 26.0806 27.0153 26.4273 27.154C26.7739 27.2927 27.1509 27.362 27.5583 27.362ZM34.12 29V19.9H38.059C38.8737 19.9 39.5757 20.0343 40.165 20.303C40.7543 20.563 41.2093 20.94 41.53 21.434C41.8507 21.928 42.011 22.5173 42.011 23.202C42.011 23.878 41.8507 24.463 41.53 24.957C41.2093 25.451 40.7543 25.8323 40.165 26.101C39.5757 26.361 38.8737 26.491 38.059 26.491H35.29L36.226 25.542V29H34.12ZM36.226 25.776L35.29 24.775H37.942C38.592 24.775 39.0773 24.6363 39.398 24.359C39.7187 24.0817 39.879 23.696 39.879 23.202C39.879 22.6993 39.7187 22.3093 39.398 22.032C39.0773 21.7547 38.592 21.616 37.942 21.616H35.29L36.226 20.615V25.776Z" fill="#511D43"/>
<mask id="path-3-inside-1_218_25" fill="white">
<rect x="20" y="46" width="9" height="23" rx="2"/>
</mask>
<rect x="20" y="46" width="9" height="23" rx="2" fill="#511D43" stroke="#511D43" stroke-width="6" mask="url(#path-3-inside-1_218_25)"/>
</svg>
