<svg width="49" height="69" viewBox="0 0 49 69" fill="none" xmlns="http://www.w3.org/2000/svg">
<rect x="2.52844" y="3.01725" width="42.7295" height="42.7295" rx="7.5" transform="rotate(-0.655536 2.52844 3.01725)" stroke="#5B2F86" stroke-width="5"/>
<path d="M18 27C17.7167 27 17.4792 26.9042 17.2875 26.7125C17.0958 26.5208 17 26.2833 17 26V23.95C16.7 23.6167 16.4583 23.2458 16.275 22.8375C16.0917 22.4292 16 21.9833 16 21.5V12C16 10.6167 16.6417 9.60417 17.925 8.9625C19.2083 8.32083 21.2333 8 24 8C26.8667 8 28.9167 8.30833 30.15 8.925C31.3833 9.54167 32 10.5667 32 12V21.5C32 21.9833 31.9083 22.4292 31.725 22.8375C31.5417 23.2458 31.3 23.6167 31 23.95V26C31 26.2833 30.9042 26.5208 30.7125 26.7125C30.5208 26.9042 30.2833 27 30 27H29C28.7167 27 28.4792 26.9042 28.2875 26.7125C28.0958 26.5208 28 26.2833 28 26V25H20V26C20 26.2833 19.9042 26.5208 19.7125 26.7125C19.5208 26.9042 19.2833 27 19 27H18ZM24.05 11H29.65H18.45H24.05ZM28 18H18H30H28ZM18 16H30V13H18V16ZM20.5 22C20.9167 22 21.2708 21.8542 21.5625 21.5625C21.8542 21.2708 22 20.9167 22 20.5C22 20.0833 21.8542 19.7292 21.5625 19.4375C21.2708 19.1458 20.9167 19 20.5 19C20.0833 19 19.7292 19.1458 19.4375 19.4375C19.1458 19.7292 19 20.0833 19 20.5C19 20.9167 19.1458 21.2708 19.4375 21.5625C19.7292 21.8542 20.0833 22 20.5 22ZM27.5 22C27.9167 22 28.2708 21.8542 28.5625 21.5625C28.8542 21.2708 29 20.9167 29 20.5C29 20.0833 28.8542 19.7292 28.5625 19.4375C28.2708 19.1458 27.9167 19 27.5 19C27.0833 19 26.7292 19.1458 26.4375 19.4375C26.1458 19.7292 26 20.0833 26 20.5C26 20.9167 26.1458 21.2708 26.4375 21.5625C26.7292 21.8542 27.0833 22 27.5 22ZM18.45 11H29.65C29.4 10.7167 28.8625 10.4792 28.0375 10.2875C27.2125 10.0958 25.8833 10 24.05 10C22.2667 10 20.9625 10.1042 20.1375 10.3125C19.3125 10.5208 18.75 10.75 18.45 11ZM20 23H28C28.55 23 29.0208 22.8042 29.4125 22.4125C29.8042 22.0208 30 21.55 30 21V18H18V21C18 21.55 18.1958 22.0208 18.5875 22.4125C18.9792 22.8042 19.45 23 20 23Z" fill="#5B2F86"/>
<path d="M10.069 39.156C9.341 39.156 8.64333 39.0607 7.976 38.87C7.30867 38.6707 6.77133 38.415 6.364 38.103L7.079 36.517C7.469 36.7943 7.92833 37.024 8.457 37.206C8.99433 37.3793 9.536 37.466 10.082 37.466C10.498 37.466 10.8317 37.427 11.083 37.349C11.343 37.2623 11.5337 37.1453 11.655 36.998C11.7763 36.8507 11.837 36.6817 11.837 36.491C11.837 36.2483 11.7417 36.0577 11.551 35.919C11.3603 35.7717 11.109 35.6547 10.797 35.568C10.485 35.4727 10.1383 35.386 9.757 35.308C9.38433 35.2213 9.00733 35.1173 8.626 34.996C8.25333 34.8747 7.911 34.7187 7.599 34.528C7.287 34.3373 7.03133 34.086 6.832 33.774C6.64133 33.462 6.546 33.0633 6.546 32.578C6.546 32.058 6.68467 31.5857 6.962 31.161C7.248 30.7277 7.67267 30.3853 8.236 30.134C8.808 29.874 9.523 29.744 10.381 29.744C10.953 29.744 11.5163 29.8133 12.071 29.952C12.6257 30.082 13.1153 30.2813 13.54 30.55L12.89 32.149C12.4653 31.9063 12.0407 31.7287 11.616 31.616C11.1913 31.4947 10.7753 31.434 10.368 31.434C9.96067 31.434 9.627 31.4817 9.367 31.577C9.107 31.6723 8.92067 31.798 8.808 31.954C8.69533 32.1013 8.639 32.2747 8.639 32.474C8.639 32.708 8.73433 32.8987 8.925 33.046C9.11567 33.1847 9.367 33.2973 9.679 33.384C9.991 33.4707 10.3333 33.5573 10.706 33.644C11.0873 33.7307 11.4643 33.8303 11.837 33.943C12.2183 34.0557 12.565 34.2073 12.877 34.398C13.189 34.5887 13.4403 34.84 13.631 35.152C13.8303 35.464 13.93 35.8583 13.93 36.335C13.93 36.8463 13.787 37.3143 13.501 37.739C13.215 38.1637 12.786 38.506 12.214 38.766C11.6507 39.026 10.9357 39.156 10.069 39.156ZM17.1271 39V31.616H14.2151V29.9H22.1451V31.616H19.2331V39H17.1271ZM27.5713 39.156C26.8519 39.156 26.1846 39.039 25.5693 38.805C24.9626 38.571 24.4339 38.2417 23.9833 37.817C23.5413 37.3923 23.1946 36.894 22.9433 36.322C22.7006 35.75 22.5793 35.126 22.5793 34.45C22.5793 33.774 22.7006 33.15 22.9433 32.578C23.1946 32.006 23.5456 31.5077 23.9963 31.083C24.4469 30.6583 24.9756 30.329 25.5823 30.095C26.1889 29.861 26.8476 29.744 27.5583 29.744C28.2776 29.744 28.9363 29.861 29.5343 30.095C30.1409 30.329 30.6653 30.6583 31.1073 31.083C31.5579 31.5077 31.9089 32.006 32.1603 32.578C32.4116 33.1413 32.5373 33.7653 32.5373 34.45C32.5373 35.126 32.4116 35.7543 32.1603 36.335C31.9089 36.907 31.5579 37.4053 31.1073 37.83C30.6653 38.246 30.1409 38.571 29.5343 38.805C28.9363 39.039 28.2819 39.156 27.5713 39.156ZM27.5583 37.362C27.9656 37.362 28.3383 37.2927 28.6763 37.154C29.0229 37.0153 29.3263 36.816 29.5863 36.556C29.8463 36.296 30.0456 35.9883 30.1843 35.633C30.3316 35.2777 30.4053 34.8833 30.4053 34.45C30.4053 34.0167 30.3316 33.6223 30.1843 33.267C30.0456 32.9117 29.8463 32.604 29.5863 32.344C29.3349 32.084 29.0359 31.8847 28.6893 31.746C28.3426 31.6073 27.9656 31.538 27.5583 31.538C27.1509 31.538 26.7739 31.6073 26.4273 31.746C26.0893 31.8847 25.7903 32.084 25.5303 32.344C25.2703 32.604 25.0666 32.9117 24.9193 33.267C24.7806 33.6223 24.7113 34.0167 24.7113 34.45C24.7113 34.8747 24.7806 35.269 24.9193 35.633C25.0666 35.9883 25.2659 36.296 25.5173 36.556C25.7773 36.816 26.0806 37.0153 26.4273 37.154C26.7739 37.2927 27.1509 37.362 27.5583 37.362ZM34.12 39V29.9H38.059C38.8737 29.9 39.5757 30.0343 40.165 30.303C40.7543 30.563 41.2093 30.94 41.53 31.434C41.8507 31.928 42.011 32.5173 42.011 33.202C42.011 33.878 41.8507 34.463 41.53 34.957C41.2093 35.451 40.7543 35.8323 40.165 36.101C39.5757 36.361 38.8737 36.491 38.059 36.491H35.29L36.226 35.542V39H34.12ZM36.226 35.776L35.29 34.775H37.942C38.592 34.775 39.0773 34.6363 39.398 34.359C39.7187 34.0817 39.879 33.696 39.879 33.202C39.879 32.6993 39.7187 32.3093 39.398 32.032C39.0773 31.7547 38.592 31.616 37.942 31.616H35.29L36.226 30.615V35.776Z" fill="#5B2F86"/>
<mask id="path-4-inside-1_218_25" fill="white">
<rect x="20" y="46" width="9" height="23" rx="2"/>
</mask>
<rect x="20" y="46" width="9" height="23" rx="2" fill="#5B2F86" stroke="#5B2F86" stroke-width="6" mask="url(#path-4-inside-1_218_25)"/>
</svg>
