<svg width="48" height="62" viewBox="0 0 48 62" fill="none" xmlns="http://www.w3.org/2000/svg">
<path d="M24 40.3C26.8 40.3 29.325 39.5896 31.575 38.1688C33.825 36.7479 35.6 34.875 36.9 32.55C35.15 31.0517 33.175 29.9021 30.975 29.1013C28.775 28.3004 26.45 27.9 24 27.9C21.55 27.9 19.225 28.3004 17.025 29.1013C14.825 29.9021 12.85 31.0517 11.1 32.55C12.4 34.875 14.175 36.7479 16.425 38.1688C18.675 39.5896 21.2 40.3 24 40.3ZM24 24.8C25.65 24.8 27.0625 24.1929 28.2375 22.9788C29.4125 21.7646 30 20.305 30 18.6C30 16.895 29.4125 15.4354 28.2375 14.2213C27.0625 13.0071 25.65 12.4 24 12.4C22.35 12.4 20.9375 13.0071 19.7625 14.2213C18.5875 15.4354 18 16.895 18 18.6C18 20.305 18.5875 21.7646 19.7625 22.9788C20.9375 24.1929 22.35 24.8 24 24.8ZM24 53.785C30.1 47.9983 34.625 42.7413 37.575 38.0138C40.525 33.2863 42 29.0883 42 25.42C42 19.7883 40.2625 15.1771 36.7875 11.5863C33.3125 7.99542 29.05 6.2 24 6.2C18.95 6.2 14.6875 7.99542 11.2125 11.5863C7.7375 15.1771 6 19.7883 6 25.42C6 29.0883 7.475 33.2863 10.425 38.0138C13.375 42.7413 17.9 47.9983 24 53.785ZM24 62C15.95 54.9217 9.9375 48.3471 5.9625 42.2763C1.9875 36.2054 0 30.5867 0 25.42C0 17.67 2.4125 11.4958 7.2375 6.8975C12.0625 2.29917 17.65 0 24 0C30.35 0 35.9375 2.29917 40.7625 6.8975C45.5875 11.4958 48 17.67 48 25.42C48 30.5867 46.0125 36.2054 42.0375 42.2763C38.0625 48.3471 32.05 54.9217 24 62Z" fill="#F48502"/>
</svg>
